STARTFONT 2.1
COMMENT
COMMENT Shinonome 12dot font for ISO 8859-1
COMMENT
COMMENT The original is designed by
COMMENT   Yasuyuki Furukawa <Furukawa.Yasuyuki@fujixerox.co.jp>, 2000.
COMMENT   (Public Domain)
COMMENT
COMMENT Modified and Maintained by /efont/.
COMMENT
COMMENT (c) /efont/ -- Efont Open Laboratory 2001
COMMENT http://openlab.ring.gr.jp/efont/
COMMENT
FONT -Shinonome-Gothic-Medium-I-Normal--12-110-75-75-C-60-ISO8859-1
SIZE 12 75 75
FONTBOUNDINGBOX 9 12 -1 -2
STARTPROPERTIES 19
FONTNAME_REGISTRY ""
FOUNDRY "Shinonome"
FAMILY_NAME "Gothic"
WEIGHT_NAME "Medium"
SLANT "I"
SETWIDTH_NAME "Normal"
ADD_STYLE_NAME ""
PIXEL_SIZE 12
POINT_SIZE 110
RESOLUTION_X 75
RESOLUTION_Y 75
SPACING "C"
AVERAGE_WIDTH 60
CHARSET_REGISTRY "ISO8859"
CHARSET_ENCODING "1"
DEFAULT_CHAR 32
FONT_DESCENT 2
FONT_ASCENT 10
COPYRIGHT "Public Domain" 
ENDPROPERTIES
CHARS 256
STARTCHAR 0
ENCODING 0
SWIDTH 960 0
DWIDTH 6 0
BBX 9 12 -1 -2
BITMAP
0000
0000
0000
0000
0000
0000
0000
0000
0000
0000
0000
0000
ENDCHAR
STARTCHAR 1
ENCODING 1
SWIDTH 960 0
DWIDTH 6 0
BBX 9 12 -1 -2
BITMAP
0000
0400
0400
1C00
1C00
3E00
7C00
3800
3800
2000
2000
0000
ENDCHAR
STARTCHAR 2
ENCODING 2
SWIDTH 960 0
DWIDTH 6 0
BBX 9 12 -1 -2
BITMAP
0A80
1500
1A80
2A00
1500
3A00
2A00
5400
6A00
A800
5400
A800
ENDCHAR
STARTCHAR 3
ENCODING 3
SWIDTH 960 0
DWIDTH 6 0
BBX 9 12 -1 -2
BITMAP
0000
1400
1400
3800
2800
2800
1C00
0800
0800
1000
1000
0000
ENDCHAR
STARTCHAR 4
ENCODING 4
SWIDTH 960 0
DWIDTH 6 0
BBX 9 12 -1 -2
BITMAP
0000
1C00
1000
3800
2000
3800
1C00
1000
1C00
2000
2000
0000
ENDCHAR
STARTCHAR 5
ENCODING 5
SWIDTH 960 0
DWIDTH 6 0
BBX 9 12 -1 -2
BITMAP
0000
0C00
1000
2000
2000
1800
1800
1400
1800
2800
2800
0000
ENDCHAR
STARTCHAR 6
ENCODING 6
SWIDTH 960 0
DWIDTH 6 0
BBX 9 12 -1 -2
BITMAP
0000
1000
1000
2000
2000
3800
1C00
1000
1C00
2000
2000
0000
ENDCHAR
STARTCHAR 7
ENCODING 7
SWIDTH 960 0
DWIDTH 6 0
BBX 9 12 -1 -2
BITMAP
0000
0C00
1600
0800
0000
0000
0000
0000
0000
0000
0000
0000
ENDCHAR
STARTCHAR 8
ENCODING 8
SWIDTH 960 0
DWIDTH 6 0
BBX 9 12 -1 -2
BITMAP
0000
0400
0400
0800
3E00
0800
1000
1000
0000
F800
0000
0000
ENDCHAR
STARTCHAR 9
ENCODING 9
SWIDTH 960 0
DWIDTH 6 0
BBX 9 12 -1 -2
BITMAP
0000
1800
1800
2800
2800
2800
1000
1000
1000
2000
3800
0000
ENDCHAR
STARTCHAR a
ENCODING 10
SWIDTH 960 0
DWIDTH 6 0
BBX 9 12 -1 -2
BITMAP
0000
1400
1400
2800
2800
1000
1800
1400
1800
2800
2800
0000
ENDCHAR
STARTCHAR b
ENCODING 11
SWIDTH 960 0
DWIDTH 6 0
BBX 9 12 -1 -2
BITMAP
0400
0400
0400
0800
0800
3800
0000
0000
0000
0000
0000
0000
ENDCHAR
STARTCHAR c
ENCODING 12
SWIDTH 960 0
DWIDTH 6 0
BBX 9 12 -1 -2
BITMAP
0000
0000
0000
0000
0000
3800
1000
1000
1000
2000
2000
2000
ENDCHAR
STARTCHAR d
ENCODING 13
SWIDTH 960 0
DWIDTH 6 0
BBX 9 12 -1 -2
BITMAP
0000
0000
0000
0000
0000
0F00
1000
1000
1000
2000
2000
2000
ENDCHAR
STARTCHAR e
ENCODING 14
SWIDTH 960 0
DWIDTH 6 0
BBX 9 12 -1 -2
BITMAP
0400
0400
0400
0800
0800
0F00
0000
0000
0000
0000
0000
0000
ENDCHAR
STARTCHAR f
ENCODING 15
SWIDTH 960 0
DWIDTH 6 0
BBX 9 12 -1 -2
BITMAP
0400
0400
0400
0800
0800
3F00
1000
1000
1000
2000
2000
2000
ENDCHAR
STARTCHAR 10
ENCODING 16
SWIDTH 960 0
DWIDTH 6 0
BBX 9 12 -1 -2
BITMAP
1F80
0000
0000
0000
0000
0000
0000
0000
0000
0000
0000
0000
ENDCHAR
STARTCHAR 11
ENCODING 17
SWIDTH 960 0
DWIDTH 6 0
BBX 9 12 -1 -2
BITMAP
0000
0000
0000
3F00
0000
0000
0000
0000
0000
0000
0000
0000
ENDCHAR
STARTCHAR 12
ENCODING 18
SWIDTH 960 0
DWIDTH 6 0
BBX 9 12 -1 -2
BITMAP
0000
0000
0000
0000
0000
3F00
0000
0000
0000
0000
0000
0000
ENDCHAR
STARTCHAR 13
ENCODING 19
SWIDTH 960 0
DWIDTH 6 0
BBX 9 12 -1 -2
BITMAP
0000
0000
0000
0000
0000
0000
0000
0000
7E00
0000
0000
0000
ENDCHAR
STARTCHAR 14
ENCODING 20
SWIDTH 960 0
DWIDTH 6 0
BBX 9 12 -1 -2
BITMAP
0000
0000
0000
0000
0000
0000
0000
0000
0000
0000
0000
FC00
ENDCHAR
STARTCHAR 15
ENCODING 21
SWIDTH 960 0
DWIDTH 6 0
BBX 9 12 -1 -2
BITMAP
0400
0400
0400
0800
0800
0F00
1000
1000
1000
2000
2000
2000
ENDCHAR
STARTCHAR 16
ENCODING 22
SWIDTH 960 0
DWIDTH 6 0
BBX 9 12 -1 -2
BITMAP
0400
0400
0400
0800
0800
3800
1000
1000
1000
2000
2000
2000
ENDCHAR
STARTCHAR 17
ENCODING 23
SWIDTH 960 0
DWIDTH 6 0
BBX 9 12 -1 -2
BITMAP
0400
0400
0400
0800
0800
3F00
0000
0000
0000
0000
0000
0000
ENDCHAR
STARTCHAR 18
ENCODING 24
SWIDTH 960 0
DWIDTH 6 0
BBX 9 12 -1 -2
BITMAP
0000
0000
0000
0000
0000
3F00
1000
1000
1000
2000
2000
2000
ENDCHAR
STARTCHAR 19
ENCODING 25
SWIDTH 960 0
DWIDTH 6 0
BBX 9 12 -1 -2
BITMAP
0400
0400
0400
0800
0800
0800
1000
1000
1000
2000
2000
2000
ENDCHAR
STARTCHAR 1a
ENCODING 26
SWIDTH 960 0
DWIDTH 6 0
BBX 9 12 -1 -2
BITMAP
0000
0000
0700
1800
2000
1000
0C00
7C00
0000
F800
0000
0000
ENDCHAR
STARTCHAR 1b
ENCODING 27
SWIDTH 960 0
DWIDTH 6 0
BBX 9 12 -1 -2
BITMAP
0000
0000
1800
0400
0200
0C00
7000
7C00
0000
F800
0000
0000
ENDCHAR
STARTCHAR 1c
ENCODING 28
SWIDTH 960 0
DWIDTH 6 0
BBX 9 12 -1 -2
BITMAP
0000
0000
0000
3E00
1400
1400
2800
2800
4C00
8000
0000
0000
ENDCHAR
STARTCHAR 1d
ENCODING 29
SWIDTH 960 0
DWIDTH 6 0
BBX 9 12 -1 -2
BITMAP
0000
0100
0200
0400
3E00
0800
7C00
2000
4000
8000
0000
0000
ENDCHAR
STARTCHAR 1e
ENCODING 30
SWIDTH 960 0
DWIDTH 6 0
BBX 9 12 -1 -2
BITMAP
0000
0300
0400
0800
3E00
0800
1000
1000
7000
9400
4800
0000
ENDCHAR
STARTCHAR 1f
ENCODING 31
SWIDTH 960 0
DWIDTH 6 0
BBX 9 12 -1 -2
BITMAP
0000
0000
0000
0000
0000
0800
0000
0000
0000
0000
0000
0000
ENDCHAR
STARTCHAR 20
ENCODING 32
SWIDTH 960 0
DWIDTH 6 0
BBX 9 12 -1 -2
BITMAP
0000
0000
0000
0000
0000
0000
0000
0000
0000
0000
0000
0000
ENDCHAR
STARTCHAR 21
ENCODING 33
SWIDTH 960 0
DWIDTH 6 0
BBX 9 12 -1 -2
BITMAP
0000
0400
0400
0800
0800
0800
1000
1000
0000
2000
0000
0000
ENDCHAR
STARTCHAR 22
ENCODING 34
SWIDTH 960 0
DWIDTH 6 0
BBX 9 12 -1 -2
BITMAP
0000
0A00
0A00
1400
0000
0000
0000
0000
0000
0000
0000
0000
ENDCHAR
STARTCHAR 23
ENCODING 35
SWIDTH 960 0
DWIDTH 6 0
BBX 9 12 -1 -2
BITMAP
0000
0A00
0A00
3E00
1400
1400
2800
7C00
2800
5000
0000
0000
ENDCHAR
STARTCHAR 24
ENCODING 36
SWIDTH 960 0
DWIDTH 6 0
BBX 9 12 -1 -2
BITMAP
0000
0400
0E00
1A00
2A00
1800
1800
1400
5800
7000
2000
0000
ENDCHAR
STARTCHAR 25
ENCODING 37
SWIDTH 960 0
DWIDTH 6 0
BBX 9 12 -1 -2
BITMAP
0000
0900
1600
1A00
0400
0800
1000
2800
3400
5800
8000
0000
ENDCHAR
STARTCHAR 26
ENCODING 38
SWIDTH 960 0
DWIDTH 6 0
BBX 9 12 -1 -2
BITMAP
0000
0800
1400
1400
1800
1000
3400
4800
5800
6800
0000
0000
ENDCHAR
STARTCHAR 27
ENCODING 39
SWIDTH 960 0
DWIDTH 6 0
BBX 9 12 -1 -2
BITMAP
0000
0600
0400
0800
0000
0000
0000
0000
0000
0000
0000
0000
ENDCHAR
STARTCHAR 28
ENCODING 40
SWIDTH 960 0
DWIDTH 6 0
BBX 9 12 -1 -2
BITMAP
0000
0100
0200
0400
0800
0800
1000
1000
1000
1000
0800
0000
ENDCHAR
STARTCHAR 29
ENCODING 41
SWIDTH 960 0
DWIDTH 6 0
BBX 9 12 -1 -2
BITMAP
0000
1000
1000
1000
0800
0800
1000
1000
2000
4000
8000
0000
ENDCHAR
STARTCHAR 2a
ENCODING 42
SWIDTH 960 0
DWIDTH 6 0
BBX 9 12 -1 -2
BITMAP
0000
0000
0000
0800
2A00
3C00
5400
1000
0000
0000
0000
0000
ENDCHAR
STARTCHAR 2b
ENCODING 43
SWIDTH 960 0
DWIDTH 6 0
BBX 9 12 -1 -2
BITMAP
0000
0000
0000
0800
0800
3E00
1000
1000
0000
0000
0000
0000
ENDCHAR
STARTCHAR 2c
ENCODING 44
SWIDTH 960 0
DWIDTH 6 0
BBX 9 12 -1 -2
BITMAP
0000
0000
0000
0000
0000
0000
0000
0000
1000
2000
4000
0000
ENDCHAR
STARTCHAR 2d
ENCODING 45
SWIDTH 960 0
DWIDTH 6 0
BBX 9 12 -1 -2
BITMAP
0000
0000
0000
0000
0000
3E00
0000
0000
0000
0000
0000
0000
ENDCHAR
STARTCHAR 2e
ENCODING 46
SWIDTH 960 0
DWIDTH 6 0
BBX 9 12 -1 -2
BITMAP
0000
0000
0000
0000
0000
0000
0000
0000
1000
0000
0000
0000
ENDCHAR
STARTCHAR 2f
ENCODING 47
SWIDTH 960 0
DWIDTH 6 0
BBX 9 12 -1 -2
BITMAP
0000
0100
0200
0200
0400
0800
1000
2000
4000
4000
8000
0000
ENDCHAR
STARTCHAR 30
ENCODING 48
SWIDTH 960 0
DWIDTH 6 0
BBX 9 12 -1 -2
BITMAP
0000
0400
0A00
1200
1200
1200
2400
2400
2800
3000
0000
0000
ENDCHAR
STARTCHAR 31
ENCODING 49
SWIDTH 960 0
DWIDTH 6 0
BBX 9 12 -1 -2
BITMAP
0000
0400
1C00
0800
0800
0800
1000
1000
1000
2000
0000
0000
ENDCHAR
STARTCHAR 32
ENCODING 50
SWIDTH 960 0
DWIDTH 6 0
BBX 9 12 -1 -2
BITMAP
0000
0C00
1200
2200
0200
0400
1800
2000
4000
F800
0000
0000
ENDCHAR
STARTCHAR 33
ENCODING 51
SWIDTH 960 0
DWIDTH 6 0
BBX 9 12 -1 -2
BITMAP
0000
0C00
1200
0200
0800
0400
0400
4400
4800
3000
0000
0000
ENDCHAR
STARTCHAR 34
ENCODING 52
SWIDTH 960 0
DWIDTH 6 0
BBX 9 12 -1 -2
BITMAP
0000
0200
0600
0C00
1400
2400
4800
7C00
0800
1000
0000
0000
ENDCHAR
STARTCHAR 35
ENCODING 53
SWIDTH 960 0
DWIDTH 6 0
BBX 9 12 -1 -2
BITMAP
0000
1E00
1000
2000
3800
2400
0400
0400
4800
3000
0000
0000
ENDCHAR
STARTCHAR 36
ENCODING 54
SWIDTH 960 0
DWIDTH 6 0
BBX 9 12 -1 -2
BITMAP
0000
0600
0800
1000
3800
2400
4400
4400
4800
3000
0000
0000
ENDCHAR
STARTCHAR 37
ENCODING 55
SWIDTH 960 0
DWIDTH 6 0
BBX 9 12 -1 -2
BITMAP
0000
1F00
0100
0200
0400
0800
0800
1000
1000
2000
0000
0000
ENDCHAR
STARTCHAR 38
ENCODING 56
SWIDTH 960 0
DWIDTH 6 0
BBX 9 12 -1 -2
BITMAP
0000
0C00
1200
1200
1800
2400
4400
4400
4800
3000
0000
0000
ENDCHAR
STARTCHAR 39
ENCODING 57
SWIDTH 960 0
DWIDTH 6 0
BBX 9 12 -1 -2
BITMAP
0000
0C00
1200
2200
2200
1E00
0400
0400
1800
6000
0000
0000
ENDCHAR
STARTCHAR 3a
ENCODING 58
SWIDTH 960 0
DWIDTH 6 0
BBX 9 12 -1 -2
BITMAP
0000
0000
0000
0000
0800
0000
0000
1000
0000
0000
0000
0000
ENDCHAR
STARTCHAR 3b
ENCODING 59
SWIDTH 960 0
DWIDTH 6 0
BBX 9 12 -1 -2
BITMAP
0000
0000
0000
0800
0000
0000
1000
1000
2000
0000
0000
0000
ENDCHAR
STARTCHAR 3c
ENCODING 60
SWIDTH 960 0
DWIDTH 6 0
BBX 9 12 -1 -2
BITMAP
0000
0000
0300
0400
0800
1000
1000
0800
0400
0000
0000
0000
ENDCHAR
STARTCHAR 3d
ENCODING 61
SWIDTH 960 0
DWIDTH 6 0
BBX 9 12 -1 -2
BITMAP
0000
0000
0000
0000
3E00
0000
7C00
0000
0000
0000
0000
0000
ENDCHAR
STARTCHAR 3e
ENCODING 62
SWIDTH 960 0
DWIDTH 6 0
BBX 9 12 -1 -2
BITMAP
0000
0000
0800
0800
0400
0600
0800
1000
2000
0000
0000
0000
ENDCHAR
STARTCHAR 3f
ENCODING 63
SWIDTH 960 0
DWIDTH 6 0
BBX 9 12 -1 -2
BITMAP
0000
0E00
1200
2200
0400
0800
0800
1000
0000
2000
0000
0000
ENDCHAR
STARTCHAR 40
ENCODING 64
SWIDTH 960 0
DWIDTH 6 0
BBX 9 12 -1 -2
BITMAP
0000
0E00
1100
2600
2A00
2A00
4C00
4800
4C00
3000
0000
0000
ENDCHAR
STARTCHAR 41
ENCODING 65
SWIDTH 960 0
DWIDTH 6 0
BBX 9 12 -1 -2
BITMAP
0000
0400
0400
0C00
1400
1400
3C00
4400
4400
8800
0000
0000
ENDCHAR
STARTCHAR 42
ENCODING 66
SWIDTH 960 0
DWIDTH 6 0
BBX 9 12 -1 -2
BITMAP
0000
1E00
1200
2200
2400
3C00
4400
4400
4800
F000
0000
0000
ENDCHAR
STARTCHAR 43
ENCODING 67
SWIDTH 960 0
DWIDTH 6 0
BBX 9 12 -1 -2
BITMAP
0000
0400
0A00
1200
2000
2000
4000
4400
2800
3000
0000
0000
ENDCHAR
STARTCHAR 44
ENCODING 68
SWIDTH 960 0
DWIDTH 6 0
BBX 9 12 -1 -2
BITMAP
0000
1C00
1200
2200
2200
2200
4400
4400
5800
E000
0000
0000
ENDCHAR
STARTCHAR 45
ENCODING 69
SWIDTH 960 0
DWIDTH 6 0
BBX 9 12 -1 -2
BITMAP
0000
1F00
1000
2000
2000
3C00
4000
4000
4000
F800
0000
0000
ENDCHAR
STARTCHAR 46
ENCODING 70
SWIDTH 960 0
DWIDTH 6 0
BBX 9 12 -1 -2
BITMAP
0000
1F00
1000
2000
2000
3C00
4000
4000
4000
8000
0000
0000
ENDCHAR
STARTCHAR 47
ENCODING 71
SWIDTH 960 0
DWIDTH 6 0
BBX 9 12 -1 -2
BITMAP
0000
0600
0900
1000
2000
2E00
4400
4400
2400
1800
0000
0000
ENDCHAR
STARTCHAR 48
ENCODING 72
SWIDTH 960 0
DWIDTH 6 0
BBX 9 12 -1 -2
BITMAP
0000
1100
1100
2200
2200
3E00
4400
4400
4400
8800
0000
0000
ENDCHAR
STARTCHAR 49
ENCODING 73
SWIDTH 960 0
DWIDTH 6 0
BBX 9 12 -1 -2
BITMAP
0000
0E00
0400
0800
0800
0800
1000
1000
1000
7000
0000
0000
ENDCHAR
STARTCHAR 4a
ENCODING 74
SWIDTH 960 0
DWIDTH 6 0
BBX 9 12 -1 -2
BITMAP
0000
0200
0200
0400
0400
0400
0800
4800
5000
6000
0000
0000
ENDCHAR
STARTCHAR 4b
ENCODING 75
SWIDTH 960 0
DWIDTH 6 0
BBX 9 12 -1 -2
BITMAP
0000
1100
1600
2800
3000
3000
5000
4800
4800
8800
0000
0000
ENDCHAR
STARTCHAR 4c
ENCODING 76
SWIDTH 960 0
DWIDTH 6 0
BBX 9 12 -1 -2
BITMAP
0000
1000
1000
2000
2000
2000
4000
4000
4000
F800
0000
0000
ENDCHAR
STARTCHAR 4d
ENCODING 77
SWIDTH 960 0
DWIDTH 6 0
BBX 9 12 -1 -2
BITMAP
0000
1100
1100
3600
3600
3E00
5400
5400
5400
8800
0000
0000
ENDCHAR
STARTCHAR 4e
ENCODING 78
SWIDTH 960 0
DWIDTH 6 0
BBX 9 12 -1 -2
BITMAP
0000
1100
1900
3200
2A00
2A00
4C00
4C00
4400
8800
0000
0000
ENDCHAR
STARTCHAR 4f
ENCODING 79
SWIDTH 960 0
DWIDTH 6 0
BBX 9 12 -1 -2
BITMAP
0000
0C00
1200
2200
2200
2200
4400
4400
4800
3000
0000
0000
ENDCHAR
STARTCHAR 50
ENCODING 80
SWIDTH 960 0
DWIDTH 6 0
BBX 9 12 -1 -2
BITMAP
0000
1C00
1200
2200
2200
3C00
4000
4000
4000
8000
0000
0000
ENDCHAR
STARTCHAR 51
ENCODING 81
SWIDTH 960 0
DWIDTH 6 0
BBX 9 12 -1 -2
BITMAP
0000
0C00
1200
2200
2200
2200
4400
5400
5800
2800
0000
0000
ENDCHAR
STARTCHAR 52
ENCODING 82
SWIDTH 960 0
DWIDTH 6 0
BBX 9 12 -1 -2
BITMAP
0000
1C00
1200
2200
2200
3C00
4800
4400
4400
8800
0000
0000
ENDCHAR
STARTCHAR 53
ENCODING 83
SWIDTH 960 0
DWIDTH 6 0
BBX 9 12 -1 -2
BITMAP
0000
0E00
1100
1000
0800
0400
0400
4400
4800
3000
0000
0000
ENDCHAR
STARTCHAR 54
ENCODING 84
SWIDTH 960 0
DWIDTH 6 0
BBX 9 12 -1 -2
BITMAP
0000
1F00
0400
0800
0800
0800
1000
1000
1000
2000
0000
0000
ENDCHAR
STARTCHAR 55
ENCODING 85
SWIDTH 960 0
DWIDTH 6 0
BBX 9 12 -1 -2
BITMAP
0000
1100
1100
2200
2200
2200
4400
4400
4800
3000
0000
0000
ENDCHAR
STARTCHAR 56
ENCODING 86
SWIDTH 960 0
DWIDTH 6 0
BBX 9 12 -1 -2
BITMAP
0000
1100
1100
2200
2200
2400
2800
2800
3000
2000
0000
0000
ENDCHAR
STARTCHAR 57
ENCODING 87
SWIDTH 960 0
DWIDTH 6 0
BBX 9 12 -1 -2
BITMAP
0000
1500
1500
2A00
2A00
2C00
3400
2800
2800
5000
0000
0000
ENDCHAR
STARTCHAR 58
ENCODING 88
SWIDTH 960 0
DWIDTH 6 0
BBX 9 12 -1 -2
BITMAP
0000
1100
1200
1200
1400
0800
1800
2800
4800
8800
0000
0000
ENDCHAR
STARTCHAR 59
ENCODING 89
SWIDTH 960 0
DWIDTH 6 0
BBX 9 12 -1 -2
BITMAP
0000
1100
1200
1200
1400
1800
1000
1000
1000
2000
0000
0000
ENDCHAR
STARTCHAR 5a
ENCODING 90
SWIDTH 960 0
DWIDTH 6 0
BBX 9 12 -1 -2
BITMAP
0000
1F00
0100
0200
0400
0800
1000
2000
4000
F800
0000
0000
ENDCHAR
STARTCHAR 5b
ENCODING 91
SWIDTH 960 0
DWIDTH 6 0
BBX 9 12 -1 -2
BITMAP
0000
0700
0400
0800
0800
0800
1000
1000
1000
2000
2000
3800
ENDCHAR
STARTCHAR 5c
ENCODING 92
SWIDTH 960 0
DWIDTH 6 0
BBX 9 12 -1 -2
BITMAP
0000
1000
1000
1000
1000
1000
1000
0800
0800
0800
0800
0000
ENDCHAR
STARTCHAR 5d
ENCODING 93
SWIDTH 960 0
DWIDTH 6 0
BBX 9 12 -1 -2
BITMAP
0000
0E00
0200
0400
0400
0400
0800
0800
0800
1000
1000
7000
ENDCHAR
STARTCHAR 5e
ENCODING 94
SWIDTH 960 0
DWIDTH 6 0
BBX 9 12 -1 -2
BITMAP
0000
0400
1A00
2200
0000
0000
0000
0000
0000
0000
0000
0000
ENDCHAR
STARTCHAR 5f
ENCODING 95
SWIDTH 960 0
DWIDTH 6 0
BBX 9 12 -1 -2
BITMAP
0000
0000
0000
0000
0000
0000
0000
0000
0000
F800
0000
0000
ENDCHAR
STARTCHAR 60
ENCODING 96
SWIDTH 960 0
DWIDTH 6 0
BBX 9 12 -1 -2
BITMAP
0000
0600
0400
0400
0000
0000
0000
0000
0000
0000
0000
0000
ENDCHAR
STARTCHAR 61
ENCODING 97
SWIDTH 960 0
DWIDTH 6 0
BBX 9 12 -1 -2
BITMAP
0000
0000
0000
1C00
2200
0E00
3400
4400
5C00
2800
0000
0000
ENDCHAR
STARTCHAR 62
ENCODING 98
SWIDTH 960 0
DWIDTH 6 0
BBX 9 12 -1 -2
BITMAP
0000
1000
1000
2C00
3200
2200
4400
4400
6800
B000
0000
0000
ENDCHAR
STARTCHAR 63
ENCODING 99
SWIDTH 960 0
DWIDTH 6 0
BBX 9 12 -1 -2
BITMAP
0000
0000
0000
1C00
2200
2000
4000
4000
4C00
3000
0000
0000
ENDCHAR
STARTCHAR 64
ENCODING 100
SWIDTH 960 0
DWIDTH 6 0
BBX 9 12 -1 -2
BITMAP
0000
0100
0100
1A00
2600
2200
4400
4400
5C00
2800
0000
0000
ENDCHAR
STARTCHAR 65
ENCODING 101
SWIDTH 960 0
DWIDTH 6 0
BBX 9 12 -1 -2
BITMAP
0000
0000
0000
1C00
2200
2200
7C00
4000
4C00
3000
0000
0000
ENDCHAR
STARTCHAR 66
ENCODING 102
SWIDTH 960 0
DWIDTH 6 0
BBX 9 12 -1 -2
BITMAP
0000
0300
0400
1C00
0800
0800
1000
1000
1000
2000
0000
0000
ENDCHAR
STARTCHAR 67
ENCODING 103
SWIDTH 960 0
DWIDTH 6 0
BBX 9 12 -1 -2
BITMAP
0000
0000
0000
1E00
2200
2200
4400
4C00
3400
0800
8800
7000
ENDCHAR
STARTCHAR 68
ENCODING 104
SWIDTH 960 0
DWIDTH 6 0
BBX 9 12 -1 -2
BITMAP
0000
1000
1000
2C00
3200
2200
4400
4400
4400
8800
0000
0000
ENDCHAR
STARTCHAR 69
ENCODING 105
SWIDTH 960 0
DWIDTH 6 0
BBX 9 12 -1 -2
BITMAP
0000
0400
0000
0800
0800
0800
1000
1000
1000
2000
0000
0000
ENDCHAR
STARTCHAR 6a
ENCODING 106
SWIDTH 960 0
DWIDTH 6 0
BBX 9 12 -1 -2
BITMAP
0000
0400
0000
0800
0800
0800
1000
1000
1000
2000
2000
4000
ENDCHAR
STARTCHAR 6b
ENCODING 107
SWIDTH 960 0
DWIDTH 6 0
BBX 9 12 -1 -2
BITMAP
0000
1000
1000
2000
2400
3800
6000
5000
4800
8800
0000
0000
ENDCHAR
STARTCHAR 6c
ENCODING 108
SWIDTH 960 0
DWIDTH 6 0
BBX 9 12 -1 -2
BITMAP
0000
0400
0400
0800
0800
0800
1000
1000
1000
2000
0000
0000
ENDCHAR
STARTCHAR 6d
ENCODING 109
SWIDTH 960 0
DWIDTH 6 0
BBX 9 12 -1 -2
BITMAP
0000
0000
0000
3C00
2A00
2A00
5400
5400
5400
A800
0000
0000
ENDCHAR
STARTCHAR 6e
ENCODING 110
SWIDTH 960 0
DWIDTH 6 0
BBX 9 12 -1 -2
BITMAP
0000
0000
0000
2C00
3200
2200
4400
4400
4400
8800
0000
0000
ENDCHAR
STARTCHAR 6f
ENCODING 111
SWIDTH 960 0
DWIDTH 6 0
BBX 9 12 -1 -2
BITMAP
0000
0000
0000
1C00
2200
2200
4400
4400
4800
3000
0000
0000
ENDCHAR
STARTCHAR 70
ENCODING 112
SWIDTH 960 0
DWIDTH 6 0
BBX 9 12 -1 -2
BITMAP
0000
0000
0000
2C00
3200
2200
4400
4400
6800
B000
8000
8000
ENDCHAR
STARTCHAR 71
ENCODING 113
SWIDTH 960 0
DWIDTH 6 0
BBX 9 12 -1 -2
BITMAP
0000
0000
0000
1A00
2600
2200
4400
4400
5C00
2800
0800
0800
ENDCHAR
STARTCHAR 72
ENCODING 114
SWIDTH 960 0
DWIDTH 6 0
BBX 9 12 -1 -2
BITMAP
0000
0000
0000
1600
1800
1000
2000
2000
2000
4000
0000
0000
ENDCHAR
STARTCHAR 73
ENCODING 115
SWIDTH 960 0
DWIDTH 6 0
BBX 9 12 -1 -2
BITMAP
0000
0000
0000
1C00
2200
1000
0800
0400
4800
3000
0000
0000
ENDCHAR
STARTCHAR 74
ENCODING 116
SWIDTH 960 0
DWIDTH 6 0
BBX 9 12 -1 -2
BITMAP
0000
0800
0800
3C00
1000
1000
2000
2000
2000
6000
0000
0000
ENDCHAR
STARTCHAR 75
ENCODING 117
SWIDTH 960 0
DWIDTH 6 0
BBX 9 12 -1 -2
BITMAP
0000
0000
0000
2200
2200
2200
4400
4400
5C00
2800
0000
0000
ENDCHAR
STARTCHAR 76
ENCODING 118
SWIDTH 960 0
DWIDTH 6 0
BBX 9 12 -1 -2
BITMAP
0000
0000
0000
2200
2200
2400
2400
2800
3000
2000
0000
0000
ENDCHAR
STARTCHAR 77
ENCODING 119
SWIDTH 960 0
DWIDTH 6 0
BBX 9 12 -1 -2
BITMAP
0000
0000
0000
2200
2A00
2A00
5400
5400
7800
5000
0000
0000
ENDCHAR
STARTCHAR 78
ENCODING 120
SWIDTH 960 0
DWIDTH 6 0
BBX 9 12 -1 -2
BITMAP
0000
0000
0000
2200
1400
1800
1000
2800
4800
8800
0000
0000
ENDCHAR
STARTCHAR 79
ENCODING 121
SWIDTH 960 0
DWIDTH 6 0
BBX 9 12 -1 -2
BITMAP
0000
0000
0000
2200
2200
2400
2400
2800
3000
2000
4000
8000
ENDCHAR
STARTCHAR 7a
ENCODING 122
SWIDTH 960 0
DWIDTH 6 0
BBX 9 12 -1 -2
BITMAP
0000
0000
0000
3E00
0400
0800
1000
2000
2000
F800
0000
0000
ENDCHAR
STARTCHAR 7b
ENCODING 123
SWIDTH 960 0
DWIDTH 6 0
BBX 9 12 -1 -2
BITMAP
0000
0100
0200
0400
0400
0800
1000
0800
0800
1000
1000
0800
ENDCHAR
STARTCHAR 7c
ENCODING 124
SWIDTH 960 0
DWIDTH 6 0
BBX 9 12 -1 -2
BITMAP
0000
0400
0400
0800
0800
0800
1000
1000
1000
2000
2000
2000
ENDCHAR
STARTCHAR 7d
ENCODING 125
SWIDTH 960 0
DWIDTH 6 0
BBX 9 12 -1 -2
BITMAP
0000
0800
0800
0800
0800
0800
0800
1000
1000
2000
2000
4000
ENDCHAR
STARTCHAR 7e
ENCODING 126
SWIDTH 960 0
DWIDTH 6 0
BBX 9 12 -1 -2
BITMAP
0000
0000
0000
1200
2C00
0000
0000
0000
0000
0000
0000
0000
ENDCHAR
STARTCHAR 7f
ENCODING 127
SWIDTH 960 0
DWIDTH 6 0
BBX 9 12 -1 -2
BITMAP
0000
0000
0000
0000
0000
0000
0000
0000
0000
0000
0000
0000
ENDCHAR
STARTCHAR 80
ENCODING 128
SWIDTH 960 0
DWIDTH 6 0
BBX 9 12 -1 -2
BITMAP
0000
0000
0000
0000
0000
0000
0000
0000
0000
0000
0000
0000
ENDCHAR
STARTCHAR 81
ENCODING 129
SWIDTH 960 0
DWIDTH 6 0
BBX 9 12 -1 -2
BITMAP
0000
0000
0000
0000
0000
0000
0000
0000
0000
0000
0000
0000
ENDCHAR
STARTCHAR 82
ENCODING 130
SWIDTH 960 0
DWIDTH 6 0
BBX 9 12 -1 -2
BITMAP
0000
0000
0000
0000
0000
0000
0000
0000
0000
0000
0000
0000
ENDCHAR
STARTCHAR 83
ENCODING 131
SWIDTH 960 0
DWIDTH 6 0
BBX 9 12 -1 -2
BITMAP
0000
0000
0000
0000
0000
0000
0000
0000
0000
0000
0000
0000
ENDCHAR
STARTCHAR 84
ENCODING 132
SWIDTH 960 0
DWIDTH 6 0
BBX 9 12 -1 -2
BITMAP
0000
0000
0000
0000
0000
0000
0000
0000
0000
0000
0000
0000
ENDCHAR
STARTCHAR 85
ENCODING 133
SWIDTH 960 0
DWIDTH 6 0
BBX 9 12 -1 -2
BITMAP
0000
0000
0000
0000
0000
0000
0000
0000
0000
0000
0000
0000
ENDCHAR
STARTCHAR 86
ENCODING 134
SWIDTH 960 0
DWIDTH 6 0
BBX 9 12 -1 -2
BITMAP
0000
0000
0000
0000
0000
0000
0000
0000
0000
0000
0000
0000
ENDCHAR
STARTCHAR 87
ENCODING 135
SWIDTH 960 0
DWIDTH 6 0
BBX 9 12 -1 -2
BITMAP
0000
0000
0000
0000
0000
0000
0000
0000
0000
0000
0000
0000
ENDCHAR
STARTCHAR 88
ENCODING 136
SWIDTH 960 0
DWIDTH 6 0
BBX 9 12 -1 -2
BITMAP
0000
0000
0000
0000
0000
0000
0000
0000
0000
0000
0000
0000
ENDCHAR
STARTCHAR 89
ENCODING 137
SWIDTH 960 0
DWIDTH 6 0
BBX 9 12 -1 -2
BITMAP
0000
0000
0000
0000
0000
0000
0000
0000
0000
0000
0000
0000
ENDCHAR
STARTCHAR 8a
ENCODING 138
SWIDTH 960 0
DWIDTH 6 0
BBX 9 12 -1 -2
BITMAP
0000
0000
0000
0000
0000
0000
0000
0000
0000
0000
0000
0000
ENDCHAR
STARTCHAR 8b
ENCODING 139
SWIDTH 960 0
DWIDTH 6 0
BBX 9 12 -1 -2
BITMAP
0000
0000
0000
0000
0000
0000
0000
0000
0000
0000
0000
0000
ENDCHAR
STARTCHAR 8c
ENCODING 140
SWIDTH 960 0
DWIDTH 6 0
BBX 9 12 -1 -2
BITMAP
0000
0000
0000
0000
0000
0000
0000
0000
0000
0000
0000
0000
ENDCHAR
STARTCHAR 8d
ENCODING 141
SWIDTH 960 0
DWIDTH 6 0
BBX 9 12 -1 -2
BITMAP
0000
0000
0000
0000
0000
0000
0000
0000
0000
0000
0000
0000
ENDCHAR
STARTCHAR 8e
ENCODING 142
SWIDTH 960 0
DWIDTH 6 0
BBX 9 12 -1 -2
BITMAP
0000
0000
0000
0000
0000
0000
0000
0000
0000
0000
0000
0000
ENDCHAR
STARTCHAR 8f
ENCODING 143
SWIDTH 960 0
DWIDTH 6 0
BBX 9 12 -1 -2
BITMAP
0000
0000
0000
0000
0000
0000
0000
0000
0000
0000
0000
0000
ENDCHAR
STARTCHAR 90
ENCODING 144
SWIDTH 960 0
DWIDTH 6 0
BBX 9 12 -1 -2
BITMAP
0000
0000
0000
0000
0000
0000
0000
0000
0000
0000
0000
0000
ENDCHAR
STARTCHAR 91
ENCODING 145
SWIDTH 960 0
DWIDTH 6 0
BBX 9 12 -1 -2
BITMAP
0000
0000
0000
0000
0000
0000
0000
0000
0000
0000
0000
0000
ENDCHAR
STARTCHAR 92
ENCODING 146
SWIDTH 960 0
DWIDTH 6 0
BBX 9 12 -1 -2
BITMAP
0000
0000
0000
0000
0000
0000
0000
0000
0000
0000
0000
0000
ENDCHAR
STARTCHAR 93
ENCODING 147
SWIDTH 960 0
DWIDTH 6 0
BBX 9 12 -1 -2
BITMAP
0000
0000
0000
0000
0000
0000
0000
0000
0000
0000
0000
0000
ENDCHAR
STARTCHAR 94
ENCODING 148
SWIDTH 960 0
DWIDTH 6 0
BBX 9 12 -1 -2
BITMAP
0000
0000
0000
0000
0000
0000
0000
0000
0000
0000
0000
0000
ENDCHAR
STARTCHAR 95
ENCODING 149
SWIDTH 960 0
DWIDTH 6 0
BBX 9 12 -1 -2
BITMAP
0000
0000
0000
0000
0000
0000
0000
0000
0000
0000
0000
0000
ENDCHAR
STARTCHAR 96
ENCODING 150
SWIDTH 960 0
DWIDTH 6 0
BBX 9 12 -1 -2
BITMAP
0000
0000
0000
0000
0000
0000
0000
0000
0000
0000
0000
0000
ENDCHAR
STARTCHAR 97
ENCODING 151
SWIDTH 960 0
DWIDTH 6 0
BBX 9 12 -1 -2
BITMAP
0000
0000
0000
0000
0000
0000
0000
0000
0000
0000
0000
0000
ENDCHAR
STARTCHAR 98
ENCODING 152
SWIDTH 960 0
DWIDTH 6 0
BBX 9 12 -1 -2
BITMAP
0000
0000
0000
0000
0000
0000
0000
0000
0000
0000
0000
0000
ENDCHAR
STARTCHAR 99
ENCODING 153
SWIDTH 960 0
DWIDTH 6 0
BBX 9 12 -1 -2
BITMAP
0000
0000
0000
0000
0000
0000
0000
0000
0000
0000
0000
0000
ENDCHAR
STARTCHAR 9a
ENCODING 154
SWIDTH 960 0
DWIDTH 6 0
BBX 9 12 -1 -2
BITMAP
0000
0000
0000
0000
0000
0000
0000
0000
0000
0000
0000
0000
ENDCHAR
STARTCHAR 9b
ENCODING 155
SWIDTH 960 0
DWIDTH 6 0
BBX 9 12 -1 -2
BITMAP
0000
0000
0000
0000
0000
0000
0000
0000
0000
0000
0000
0000
ENDCHAR
STARTCHAR 9c
ENCODING 156
SWIDTH 960 0
DWIDTH 6 0
BBX 9 12 -1 -2
BITMAP
0000
0000
0000
0000
0000
0000
0000
0000
0000
0000
0000
0000
ENDCHAR
STARTCHAR 9d
ENCODING 157
SWIDTH 960 0
DWIDTH 6 0
BBX 9 12 -1 -2
BITMAP
0000
0000
0000
0000
0000
0000
0000
0000
0000
0000
0000
0000
ENDCHAR
STARTCHAR 9e
ENCODING 158
SWIDTH 960 0
DWIDTH 6 0
BBX 9 12 -1 -2
BITMAP
0000
0000
0000
0000
0000
0000
0000
0000
0000
0000
0000
0000
ENDCHAR
STARTCHAR 9f
ENCODING 159
SWIDTH 960 0
DWIDTH 6 0
BBX 9 12 -1 -2
BITMAP
0000
0000
0000
0000
0000
0000
0000
0000
0000
0000
0000
0000
ENDCHAR
STARTCHAR a0
ENCODING 160
SWIDTH 960 0
DWIDTH 6 0
BBX 9 12 -1 -2
BITMAP
0000
0000
0000
0000
0000
0000
0000
0000
0000
0000
0000
0000
ENDCHAR
STARTCHAR a1
ENCODING 161
SWIDTH 960 0
DWIDTH 6 0
BBX 9 12 -1 -2
BITMAP
0000
0400
0000
0800
0800
0800
1000
1000
1000
2000
0000
0000
ENDCHAR
STARTCHAR a2
ENCODING 162
SWIDTH 960 0
DWIDTH 6 0
BBX 9 12 -1 -2
BITMAP
0000
0000
0200
1C00
2600
2800
5000
5000
6C00
7000
4000
0000
ENDCHAR
STARTCHAR a3
ENCODING 163
SWIDTH 960 0
DWIDTH 6 0
BBX 9 12 -1 -2
BITMAP
0000
0200
0500
0800
1E00
0800
1000
1000
7400
A800
5000
0000
ENDCHAR
STARTCHAR a4
ENCODING 164
SWIDTH 960 0
DWIDTH 6 0
BBX 9 12 -1 -2
BITMAP
0000
0000
0000
2200
1C00
1400
3800
4400
0000
0000
0000
0000
ENDCHAR
STARTCHAR a5
ENCODING 165
SWIDTH 960 0
DWIDTH 6 0
BBX 9 12 -1 -2
BITMAP
0000
1100
1200
1400
3E00
0800
7C00
1000
1000
2000
0000
0000
ENDCHAR
STARTCHAR a6
ENCODING 166
SWIDTH 960 0
DWIDTH 6 0
BBX 9 12 -1 -2
BITMAP
0000
0400
0400
0800
0800
0000
0000
1000
1000
2000
2000
0000
ENDCHAR
STARTCHAR a7
ENCODING 167
SWIDTH 960 0
DWIDTH 6 0
BBX 9 12 -1 -2
BITMAP
0000
0600
0900
0800
0C00
1600
0800
0400
2400
2800
1000
0000
ENDCHAR
STARTCHAR a8
ENCODING 168
SWIDTH 960 0
DWIDTH 6 0
BBX 9 12 -1 -2
BITMAP
0000
0A00
0000
0000
0000
0000
0000
0000
0000
0000
0000
0000
ENDCHAR
STARTCHAR a9
ENCODING 169
SWIDTH 960 0
DWIDTH 6 0
BBX 9 12 -1 -2
BITMAP
0000
0E00
1100
2E00
3200
3200
4C00
4400
3800
0000
0000
0000
ENDCHAR
STARTCHAR aa
ENCODING 170
SWIDTH 960 0
DWIDTH 6 0
BBX 9 12 -1 -2
BITMAP
0000
0C00
1400
1800
1400
0000
7800
0000
0000
0000
0000
0000
ENDCHAR
STARTCHAR ab
ENCODING 171
SWIDTH 960 0
DWIDTH 6 0
BBX 9 12 -1 -2
BITMAP
0000
0000
0000
0000
0A00
3400
5000
2800
1400
0000
0000
0000
ENDCHAR
STARTCHAR ac
ENCODING 172
SWIDTH 960 0
DWIDTH 6 0
BBX 9 12 -1 -2
BITMAP
0000
0000
0000
0000
0000
3E00
0400
0400
0000
0000
0000
0000
ENDCHAR
STARTCHAR ad
ENCODING 173
SWIDTH 960 0
DWIDTH 6 0
BBX 9 12 -1 -2
BITMAP
0000
0000
0000
0000
0000
0000
3800
0000
0000
0000
0000
0000
ENDCHAR
STARTCHAR ae
ENCODING 174
SWIDTH 960 0
DWIDTH 6 0
BBX 9 12 -1 -2
BITMAP
0000
0F00
1100
2D00
2B00
2D00
5600
5600
3C00
0000
0000
0000
ENDCHAR
STARTCHAR af
ENCODING 175
SWIDTH 960 0
DWIDTH 6 0
BBX 9 12 -1 -2
BITMAP
0000
0E00
0000
0000
0000
0000
0000
0000
0000
0000
0000
0000
ENDCHAR
STARTCHAR b0
ENCODING 176
SWIDTH 960 0
DWIDTH 6 0
BBX 9 12 -1 -2
BITMAP
0600
0900
0600
0000
0000
0000
0000
0000
0000
0000
0000
0000
ENDCHAR
STARTCHAR b1
ENCODING 177
SWIDTH 960 0
DWIDTH 6 0
BBX 9 12 -1 -2
BITMAP
0000
0000
0000
0800
0800
3E00
1000
1000
7C00
0000
0000
0000
ENDCHAR
STARTCHAR b2
ENCODING 178
SWIDTH 960 0
DWIDTH 6 0
BBX 9 12 -1 -2
BITMAP
0800
1400
0800
1000
3800
0000
0000
0000
0000
0000
0000
0000
ENDCHAR
STARTCHAR b3
ENCODING 179
SWIDTH 960 0
DWIDTH 6 0
BBX 9 12 -1 -2
BITMAP
1800
0400
1000
0800
3000
0000
0000
0000
0000
0000
0000
0000
ENDCHAR
STARTCHAR b4
ENCODING 180
SWIDTH 960 0
DWIDTH 6 0
BBX 9 12 -1 -2
BITMAP
0600
0800
0000
0000
0000
0000
0000
0000
0000
0000
0000
0000
ENDCHAR
STARTCHAR b5
ENCODING 181
SWIDTH 960 0
DWIDTH 6 0
BBX 9 12 -1 -2
BITMAP
0000
0000
0000
0000
1200
1200
2400
2400
3A00
4000
4000
8000
ENDCHAR
STARTCHAR b6
ENCODING 182
SWIDTH 960 0
DWIDTH 6 0
BBX 9 12 -1 -2
BITMAP
0000
0700
0D00
1A00
0A00
0A00
1400
1400
1400
2800
2800
0000
ENDCHAR
STARTCHAR b7
ENCODING 183
SWIDTH 960 0
DWIDTH 6 0
BBX 9 12 -1 -2
BITMAP
0000
0000
0000
0000
0000
0C00
1800
0000
0000
0000
0000
0000
ENDCHAR
STARTCHAR b8
ENCODING 184
SWIDTH 960 0
DWIDTH 6 0
BBX 9 12 -1 -2
BITMAP
0000
0000
0000
0000
0000
0000
0000
0000
2000
6000
1000
6000
ENDCHAR
STARTCHAR b9
ENCODING 185
SWIDTH 960 0
DWIDTH 6 0
BBX 9 12 -1 -2
BITMAP
0800
1800
0800
1000
1000
0000
0000
0000
0000
0000
0000
0000
ENDCHAR
STARTCHAR ba
ENCODING 186
SWIDTH 960 0
DWIDTH 6 0
BBX 9 12 -1 -2
BITMAP
0000
0800
1400
1400
0800
0000
7800
0000
0000
0000
0000
0000
ENDCHAR
STARTCHAR bb
ENCODING 187
SWIDTH 960 0
DWIDTH 6 0
BBX 9 12 -1 -2
BITMAP
0000
0000
0000
2800
1400
1A00
2800
5000
0000
0000
0000
0000
ENDCHAR
STARTCHAR bc
ENCODING 188
SWIDTH 960 0
DWIDTH 6 0
BBX 9 12 -1 -2
BITMAP
1000
1200
1400
1400
2C00
0E00
0800
0000
0000
0000
0000
0000
ENDCHAR
STARTCHAR bd
ENCODING 189
SWIDTH 960 0
DWIDTH 6 0
BBX 9 12 -1 -2
BITMAP
1000
1200
1C00
1200
2200
0C00
1400
0000
0000
0000
0000
0000
ENDCHAR
STARTCHAR be
ENCODING 190
SWIDTH 960 0
DWIDTH 6 0
BBX 9 12 -1 -2
BITMAP
1800
0400
1C00
0600
3600
1A00
1E00
0400
0000
0000
0000
0000
ENDCHAR
STARTCHAR bf
ENCODING 191
SWIDTH 960 0
DWIDTH 6 0
BBX 9 12 -1 -2
BITMAP
0000
0400
0000
0800
0800
1000
2000
4400
4800
3000
0000
0000
ENDCHAR
STARTCHAR c0
ENCODING 192
SWIDTH 960 0
DWIDTH 6 0
BBX 9 12 -1 -2
BITMAP
0400
0200
0400
0800
1400
2400
4400
7C00
4400
8800
0000
0000
ENDCHAR
STARTCHAR c1
ENCODING 193
SWIDTH 960 0
DWIDTH 6 0
BBX 9 12 -1 -2
BITMAP
0400
0800
0800
0800
1400
2400
4400
7C00
4400
8800
0000
0000
ENDCHAR
STARTCHAR c2
ENCODING 194
SWIDTH 960 0
DWIDTH 6 0
BBX 9 12 -1 -2
BITMAP
0400
0A00
0C00
0800
1400
2400
4400
7C00
4400
8800
0000
0000
ENDCHAR
STARTCHAR c3
ENCODING 195
SWIDTH 960 0
DWIDTH 6 0
BBX 9 12 -1 -2
BITMAP
0A00
1400
0400
0800
1400
2400
4400
7C00
4400
8800
0000
0000
ENDCHAR
STARTCHAR c4
ENCODING 196
SWIDTH 960 0
DWIDTH 6 0
BBX 9 12 -1 -2
BITMAP
0A00
0000
0400
0800
1400
2400
4400
7C00
4400
8800
0000
0000
ENDCHAR
STARTCHAR c5
ENCODING 197
SWIDTH 960 0
DWIDTH 6 0
BBX 9 12 -1 -2
BITMAP
0400
0A00
0C00
0800
1400
2400
4400
7C00
4400
8800
0000
0000
ENDCHAR
STARTCHAR c6
ENCODING 198
SWIDTH 960 0
DWIDTH 6 0
BBX 9 12 -1 -2
BITMAP
0000
0F00
0C00
1800
2800
3E00
5000
5000
5000
B800
0000
0000
ENDCHAR
STARTCHAR c7
ENCODING 199
SWIDTH 960 0
DWIDTH 6 0
BBX 9 12 -1 -2
BITMAP
0000
0600
0900
1000
2000
2000
2000
2400
1800
1000
6000
0000
ENDCHAR
STARTCHAR c8
ENCODING 200
SWIDTH 960 0
DWIDTH 6 0
BBX 9 12 -1 -2
BITMAP
0800
0400
1F00
2000
2000
3C00
4000
4000
4000
F800
0000
0000
ENDCHAR
STARTCHAR c9
ENCODING 201
SWIDTH 960 0
DWIDTH 6 0
BBX 9 12 -1 -2
BITMAP
0200
0400
1F00
2000
2000
3C00
4000
4000
4000
F800
0000
0000
ENDCHAR
STARTCHAR ca
ENCODING 202
SWIDTH 960 0
DWIDTH 6 0
BBX 9 12 -1 -2
BITMAP
0400
0A00
1F00
2000
2000
3C00
4000
4000
4000
F800
0000
0000
ENDCHAR
STARTCHAR cb
ENCODING 203
SWIDTH 960 0
DWIDTH 6 0
BBX 9 12 -1 -2
BITMAP
0A00
0000
1F00
2000
2000
3C00
4000
4000
4000
F800
0000
0000
ENDCHAR
STARTCHAR cc
ENCODING 204
SWIDTH 960 0
DWIDTH 6 0
BBX 9 12 -1 -2
BITMAP
0800
0400
0E00
0800
0800
0800
1000
1000
1000
7000
0000
0000
ENDCHAR
STARTCHAR cd
ENCODING 205
SWIDTH 960 0
DWIDTH 6 0
BBX 9 12 -1 -2
BITMAP
0200
0400
0E00
0800
0800
0800
1000
1000
1000
7000
0000
0000
ENDCHAR
STARTCHAR ce
ENCODING 206
SWIDTH 960 0
DWIDTH 6 0
BBX 9 12 -1 -2
BITMAP
0400
0A00
0000
1C00
0800
0800
1000
1000
1000
7000
0000
0000
ENDCHAR
STARTCHAR cf
ENCODING 207
SWIDTH 960 0
DWIDTH 6 0
BBX 9 12 -1 -2
BITMAP
0A00
0000
0E00
0800
0800
0800
1000
1000
1000
7000
0000
0000
ENDCHAR
STARTCHAR d0
ENCODING 208
SWIDTH 960 0
DWIDTH 6 0
BBX 9 12 -1 -2
BITMAP
0000
1C00
1200
2200
2200
3200
4400
4400
5800
E000
0000
0000
ENDCHAR
STARTCHAR d1
ENCODING 209
SWIDTH 960 0
DWIDTH 6 0
BBX 9 12 -1 -2
BITMAP
0A00
1400
1100
3200
2A00
2A00
4C00
4C00
4400
8800
0000
0000
ENDCHAR
STARTCHAR d2
ENCODING 210
SWIDTH 960 0
DWIDTH 6 0
BBX 9 12 -1 -2
BITMAP
0800
0400
0E00
1200
2200
2200
4400
4400
4800
3000
0000
0000
ENDCHAR
STARTCHAR d3
ENCODING 211
SWIDTH 960 0
DWIDTH 6 0
BBX 9 12 -1 -2
BITMAP
0200
0400
0E00
1200
2200
2200
4400
4400
4800
3000
0000
0000
ENDCHAR
STARTCHAR d4
ENCODING 212
SWIDTH 960 0
DWIDTH 6 0
BBX 9 12 -1 -2
BITMAP
0400
0A00
0E00
1200
2200
2200
4400
4400
4800
3000
0000
0000
ENDCHAR
STARTCHAR d5
ENCODING 213
SWIDTH 960 0
DWIDTH 6 0
BBX 9 12 -1 -2
BITMAP
0500
0A00
0E00
1200
2200
2200
4400
4400
4800
3000
0000
0000
ENDCHAR
STARTCHAR d6
ENCODING 214
SWIDTH 960 0
DWIDTH 6 0
BBX 9 12 -1 -2
BITMAP
0A00
0000
0C00
1200
2200
2200
4400
4400
4800
3000
0000
0000
ENDCHAR
STARTCHAR d7
ENCODING 215
SWIDTH 960 0
DWIDTH 6 0
BBX 9 12 -1 -2
BITMAP
0000
0000
0000
2200
1400
1800
2800
4400
0000
0000
0000
0000
ENDCHAR
STARTCHAR d8
ENCODING 216
SWIDTH 960 0
DWIDTH 6 0
BBX 9 12 -1 -2
BITMAP
0000
0680
0B80
1200
1600
1A00
3400
2400
6800
B000
0000
0000
ENDCHAR
STARTCHAR d9
ENCODING 217
SWIDTH 960 0
DWIDTH 6 0
BBX 9 12 -1 -2
BITMAP
0800
0400
1100
2200
2200
2200
4400
4400
4800
3000
0000
0000
ENDCHAR
STARTCHAR da
ENCODING 218
SWIDTH 960 0
DWIDTH 6 0
BBX 9 12 -1 -2
BITMAP
0200
0400
1100
2200
2200
2200
4400
4400
4800
3000
0000
0000
ENDCHAR
STARTCHAR db
ENCODING 219
SWIDTH 960 0
DWIDTH 6 0
BBX 9 12 -1 -2
BITMAP
0400
0A00
0000
2200
2200
2200
4400
4400
4800
3000
0000
0000
ENDCHAR
STARTCHAR dc
ENCODING 220
SWIDTH 960 0
DWIDTH 6 0
BBX 9 12 -1 -2
BITMAP
0A00
1400
0000
2200
2200
2200
4400
4400
4800
3000
0000
0000
ENDCHAR
STARTCHAR dd
ENCODING 221
SWIDTH 960 0
DWIDTH 6 0
BBX 9 12 -1 -2
BITMAP
0200
0400
1200
1200
1400
1800
0800
1000
1000
2000
0000
0000
ENDCHAR
STARTCHAR de
ENCODING 222
SWIDTH 960 0
DWIDTH 6 0
BBX 9 12 -1 -2
BITMAP
0000
0800
0800
1C00
1200
1200
2400
2400
3800
4000
4000
0000
ENDCHAR
STARTCHAR df
ENCODING 223
SWIDTH 960 0
DWIDTH 6 0
BBX 9 12 -1 -2
BITMAP
0000
0400
0A00
1200
1200
1800
2400
2400
2800
5000
4000
4000
ENDCHAR
STARTCHAR e0
ENCODING 224
SWIDTH 960 0
DWIDTH 6 0
BBX 9 12 -1 -2
BITMAP
0800
0400
0000
1C00
2200
0E00
3400
4400
5C00
2800
0000
0000
ENDCHAR
STARTCHAR e1
ENCODING 225
SWIDTH 960 0
DWIDTH 6 0
BBX 9 12 -1 -2
BITMAP
0200
0400
0000
1C00
2200
0E00
3400
4400
5C00
2800
0000
0000
ENDCHAR
STARTCHAR e2
ENCODING 226
SWIDTH 960 0
DWIDTH 6 0
BBX 9 12 -1 -2
BITMAP
0400
0A00
0000
1C00
2200
0E00
3400
4400
5C00
2800
0000
0000
ENDCHAR
STARTCHAR e3
ENCODING 227
SWIDTH 960 0
DWIDTH 6 0
BBX 9 12 -1 -2
BITMAP
0A00
1400
0000
1C00
2200
0E00
3400
4400
5C00
2800
0000
0000
ENDCHAR
STARTCHAR e4
ENCODING 228
SWIDTH 960 0
DWIDTH 6 0
BBX 9 12 -1 -2
BITMAP
0000
0A00
0000
1C00
2200
0E00
3400
4400
5C00
2800
0000
0000
ENDCHAR
STARTCHAR e5
ENCODING 229
SWIDTH 960 0
DWIDTH 6 0
BBX 9 12 -1 -2
BITMAP
0400
0A00
0400
1C00
2200
0E00
3400
4400
5C00
2800
0000
0000
ENDCHAR
STARTCHAR e6
ENCODING 230
SWIDTH 960 0
DWIDTH 6 0
BBX 9 12 -1 -2
BITMAP
0000
0000
0000
1400
2A00
0A00
3C00
5000
5C00
7000
0000
0000
ENDCHAR
STARTCHAR e7
ENCODING 231
SWIDTH 960 0
DWIDTH 6 0
BBX 9 12 -1 -2
BITMAP
0000
0000
0000
1C00
2200
2000
4000
4400
3800
1000
6000
0000
ENDCHAR
STARTCHAR e8
ENCODING 232
SWIDTH 960 0
DWIDTH 6 0
BBX 9 12 -1 -2
BITMAP
0800
0400
0000
1C00
2200
2200
7C00
4000
4C00
3000
0000
0000
ENDCHAR
STARTCHAR e9
ENCODING 233
SWIDTH 960 0
DWIDTH 6 0
BBX 9 12 -1 -2
BITMAP
0200
0400
0000
1C00
2200
2200
7C00
4000
4C00
3000
0000
0000
ENDCHAR
STARTCHAR ea
ENCODING 234
SWIDTH 960 0
DWIDTH 6 0
BBX 9 12 -1 -2
BITMAP
0400
0A00
0000
1C00
2200
2200
7C00
4000
4C00
3000
0000
0000
ENDCHAR
STARTCHAR eb
ENCODING 235
SWIDTH 960 0
DWIDTH 6 0
BBX 9 12 -1 -2
BITMAP
0000
0A00
0000
1C00
2200
2200
7C00
4000
4C00
3000
0000
0000
ENDCHAR
STARTCHAR ec
ENCODING 236
SWIDTH 960 0
DWIDTH 6 0
BBX 9 12 -1 -2
BITMAP
0800
0400
0000
0000
0800
0800
1000
1000
1000
2000
0000
0000
ENDCHAR
STARTCHAR ed
ENCODING 237
SWIDTH 960 0
DWIDTH 6 0
BBX 9 12 -1 -2
BITMAP
0200
0400
0000
0000
0800
0800
1000
1000
1000
2000
0000
0000
ENDCHAR
STARTCHAR ee
ENCODING 238
SWIDTH 960 0
DWIDTH 6 0
BBX 9 12 -1 -2
BITMAP
0400
0A00
0000
0000
0800
0800
1000
1000
1000
2000
0000
0000
ENDCHAR
STARTCHAR ef
ENCODING 239
SWIDTH 960 0
DWIDTH 6 0
BBX 9 12 -1 -2
BITMAP
0000
0A00
0000
0000
0800
0800
1000
1000
1000
2000
0000
0000
ENDCHAR
STARTCHAR f0
ENCODING 240
SWIDTH 960 0
DWIDTH 6 0
BBX 9 12 -1 -2
BITMAP
1400
0800
1400
0400
1C00
2400
4400
4400
4800
3000
0000
0000
ENDCHAR
STARTCHAR f1
ENCODING 241
SWIDTH 960 0
DWIDTH 6 0
BBX 9 12 -1 -2
BITMAP
0A00
1400
0000
0000
2800
3400
4400
4400
4400
8800
0000
0000
ENDCHAR
STARTCHAR f2
ENCODING 242
SWIDTH 960 0
DWIDTH 6 0
BBX 9 12 -1 -2
BITMAP
0800
0400
0000
1C00
2200
2200
4400
4400
4800
3000
0000
0000
ENDCHAR
STARTCHAR f3
ENCODING 243
SWIDTH 960 0
DWIDTH 6 0
BBX 9 12 -1 -2
BITMAP
0200
0400
0000
1C00
2200
2200
4400
4400
4800
3000
0000
0000
ENDCHAR
STARTCHAR f4
ENCODING 244
SWIDTH 960 0
DWIDTH 6 0
BBX 9 12 -1 -2
BITMAP
0400
0A00
0000
1C00
2200
2200
4400
4400
4800
3000
0000
0000
ENDCHAR
STARTCHAR f5
ENCODING 245
SWIDTH 960 0
DWIDTH 6 0
BBX 9 12 -1 -2
BITMAP
0A00
1400
0000
1C00
2200
2200
4400
4400
4800
3000
0000
0000
ENDCHAR
STARTCHAR f6
ENCODING 246
SWIDTH 960 0
DWIDTH 6 0
BBX 9 12 -1 -2
BITMAP
0000
0A00
0000
1C00
2200
2200
4400
4400
4800
3000
0000
0000
ENDCHAR
STARTCHAR f7
ENCODING 247
SWIDTH 960 0
DWIDTH 6 0
BBX 9 12 -1 -2
BITMAP
0000
0000
0000
0800
0000
3E00
0000
1000
0000
0000
0000
0000
ENDCHAR
STARTCHAR f8
ENCODING 248
SWIDTH 960 0
DWIDTH 6 0
BBX 9 12 -1 -2
BITMAP
0000
0000
0000
0D00
1200
1E00
3400
2400
6800
3000
0000
0000
ENDCHAR
STARTCHAR f9
ENCODING 249
SWIDTH 960 0
DWIDTH 6 0
BBX 9 12 -1 -2
BITMAP
0800
0400
0000
2200
2200
2200
4400
4400
5C00
2800
0000
0000
ENDCHAR
STARTCHAR fa
ENCODING 250
SWIDTH 960 0
DWIDTH 6 0
BBX 9 12 -1 -2
BITMAP
0200
0400
0000
2200
2200
2200
4400
4400
5C00
2800
0000
0000
ENDCHAR
STARTCHAR fb
ENCODING 251
SWIDTH 960 0
DWIDTH 6 0
BBX 9 12 -1 -2
BITMAP
0400
0A00
0000
2200
2200
2200
4400
4400
5C00
2800
0000
0000
ENDCHAR
STARTCHAR fc
ENCODING 252
SWIDTH 960 0
DWIDTH 6 0
BBX 9 12 -1 -2
BITMAP
0000
0A00
0000
2200
2200
2200
4400
4400
5C00
2800
0000
0000
ENDCHAR
STARTCHAR fd
ENCODING 253
SWIDTH 960 0
DWIDTH 6 0
BBX 9 12 -1 -2
BITMAP
0200
0400
0000
2200
2200
2400
2400
2800
3000
2000
4000
8000
ENDCHAR
STARTCHAR fe
ENCODING 254
SWIDTH 960 0
DWIDTH 6 0
BBX 9 12 -1 -2
BITMAP
0000
0000
0800
1000
1800
1400
2400
2400
2800
7000
4000
4000
ENDCHAR
STARTCHAR ff
ENCODING 255
SWIDTH 960 0
DWIDTH 6 0
BBX 9 12 -1 -2
BITMAP
0000
0A00
0000
2200
2200
2400
2400
2800
3000
2000
4000
8000
ENDCHAR
ENDFONT
